<svg width="31" height="30" viewBox="0 0 31 30" fill="none" xmlns="http://www.w3.org/2000/svg">
<path d="M15.5 0C7.2125 0 0.500002 6.7125 0.500002 15C0.498301 18.1489 1.48822 21.2184 3.32933 23.773C5.17043 26.3276 7.76922 28.2376 10.757 29.232C11.507 29.3625 11.7875 28.9125 11.7875 28.518C11.7875 28.1625 11.768 26.982 11.768 25.725C8 26.4195 7.025 24.807 6.725 23.9625C6.5555 23.5305 5.825 22.2 5.1875 21.843C4.6625 21.5625 3.9125 20.868 5.168 20.85C6.35 20.8305 7.193 21.9375 7.475 22.3875C8.825 24.6555 10.982 24.018 11.843 23.625C11.975 22.65 12.368 21.9945 12.8 21.6195C9.4625 21.2445 5.975 19.95 5.975 14.2125C5.975 12.5805 6.5555 11.232 7.5125 10.1805C7.3625 9.8055 6.8375 8.268 7.6625 6.2055C7.6625 6.2055 8.918 5.8125 11.7875 7.7445C13.0086 7.40559 14.2703 7.23501 15.5375 7.2375C16.8125 7.2375 18.0875 7.4055 19.2875 7.743C22.1555 5.793 23.4125 6.207 23.4125 6.207C24.2375 8.2695 23.7125 9.807 23.5625 10.182C24.518 11.232 25.1 12.5625 25.1 14.2125C25.1 19.9695 21.5945 21.2445 18.257 21.6195C18.8 22.0875 19.2695 22.9875 19.2695 24.3945C19.2695 26.4 19.25 28.0125 19.25 28.5195C19.25 28.9125 19.532 29.3805 20.282 29.2305C23.2595 28.2252 25.8469 26.3115 27.6799 23.7587C29.5128 21.206 30.4991 18.1427 30.5 15C30.5 6.7125 23.7875 0 15.5 0Z" fill="#E15544"/>
</svg>
