<svg width="31" height="30" viewBox="0 0 31 30" fill="none" xmlns="http://www.w3.org/2000/svg">
<g clip-path="url(#clip0_3945_2978)">
<path d="M15.5 0C7.2 0 0.5 6.7 0.5 15C0.5 23.3 7.2 30 15.5 30C23.8 30 30.5 23.3 30.5 15C30.5 6.7 23.8 0 15.5 0ZM7.2 5.5C7.6 5.2 8.1 5 8.5 5C8.9 5 9.5 5.2 9.8 5.5C10.1 5.9 10.3 6.3 10.3 6.8C10.3 7.3 10.1 7.8 9.7 8.1C9.5 8.5 9 8.7 8.5 8.7C8 8.7 7.5 8.5 7.2 8.2C6.9 7.8 6.7 7.3 6.7 6.8C6.7 6.3 6.9 5.9 7.2 5.5ZM10.4 21.6H6.7V10.1H10.4V21.6ZM24.3 21.6H20.6V15.5C20.6 11.8 16.2 12.1 16.2 15.5V21.6H12.6V10.1H16.3V11.6C17.8 8.8 24.4 8.6 24.4 14.3V21.6H24.3Z" fill="#E15544"/>
</g>
<defs>
<clipPath id="clip0_3945_2978">
<rect width="30" height="30" fill="white" transform="translate(0.5)"/>
</clipPath>
</defs>
</svg>
