<svg width="31" height="30" viewBox="0 0 31 30" xmlns="http://www.w3.org/2000/svg">
  <defs>
    <mask id="maskXing">
      <!-- Kreis komplett sichtbar -->
      <circle cx="15.5" cy="15" r="15" fill="white"/>
      <!-- X ausschneiden -->
      <path d="M19.7 8.5c-.3 0-.6.2-.8.5l-4.9 8.2c-.1.2-.1.3 0 .5l2.6 4.4c.2.3.4.5.8.5h2.1c.5 0 .9-.3.7-.7l-2.6-4.5c-.1-.2-.1-.3 0-.5l4.9-8.3c.3-.5 0-1.1-.7-1.1h-2.1Zm-8.8 2.1c-.4 0-.6.3-.3.8l1.7 3c.1.2.1.3 0 .5l-2.4 4.2c-.3.5 0 1 .6 1h2.1c.3 0 .6-.2.8-.6l2.7-4.7c.1-.2.1-.3 0-.5l-1.6-2.9c-.2-.4-.3-.7-.8-.7h-2.1Z" fill="black"/>
    </mask>
  </defs>
  <!-- Kreis mit Maske: X ausgeschnitten -->
  <circle cx="15.5" cy="15" r="15" fill="#E15544" mask="url(#maskXing)"/>
</svg>
