<svg width="60px" height="60px" viewBox="0 0 60 60" fill="none" xmlns="http://www.w3.org/2000/svg" transform="rotate(0) scale(1, 1)">
<path d="M58.8783 27.3573L32.6466 1.12561C31.1458 -0.375204 28.6662 -0.375204 27.1654 1.12561L21.7494 6.5416L28.6662 13.4584C30.2975 12.9364 32.1246 13.2626 33.3644 14.5677C34.6695 15.8728 34.9958 17.6998 34.4737 19.3312L41.1295 25.987C42.7608 25.4649 44.5879 25.7912 45.893 27.0963C47.7201 28.8581 47.7201 31.7945 45.893 33.6215C44.0659 35.4486 41.1948 35.4486 39.3677 33.6215C37.9974 32.2512 37.6711 30.2936 38.3889 28.5971L32.1899 22.398V38.7113C32.6466 38.907 33.0382 39.2333 33.4297 39.5595C35.2568 41.3214 35.2568 44.2578 33.4297 46.0848C31.6026 47.8467 28.7315 47.8467 26.9044 46.0848C25.0773 44.2578 25.0773 41.3866 26.9044 39.5595C27.3612 39.1028 27.8832 38.7765 28.4052 38.5808V22.0718C27.8832 21.876 27.3612 21.4845 26.9044 21.093C25.5341 19.7227 25.2078 17.7651 25.9256 16.0685L19.0741 9.28222L1.12952 27.2268C-0.371298 28.7276 -0.371298 31.2072 1.12952 32.708L27.2959 58.8744C28.7967 60.3752 31.2763 60.3752 32.7772 58.8744L58.813 32.8385C60.3791 31.2724 60.3791 28.8581 58.8783 27.3573Z" fill="#009639"/>
</svg>