<svg width="60px" height="61px" viewBox="0 0 60 61" fill="none" xmlns="http://www.w3.org/2000/svg" transform="rotate(0) scale(1, 1)">
<g clip-path="url(#clip0_3945_2876)">
<path d="M7.9 10.3V50.8C3 45.4 0 38.3 0 30.5C0 22.7 3 15.6 7.9 10.3Z" fill="#009639"/>
<path d="M11.0996 14.7L28.3996 49.4H11.0996V14.7Z" fill="#009639"/>
<path d="M30 45.5001L13 11.6001H47L30 45.5001Z" fill="#009639"/>
<path d="M29.9998 0.5C37.7998 0.5 44.8998 3.5 50.1998 8.4H9.7998C15.0998 3.5 22.1998 0.5 29.9998 0.5Z" fill="#009639"/>
<path d="M48.8996 49.4H31.5996L48.8996 14.7V49.4Z" fill="#009639"/>
<path d="M50.1998 52.6001C44.8998 57.5001 37.7998 60.5001 29.9998 60.5001C22.1998 60.5001 15.0998 57.5001 9.7998 52.6001H50.1998Z" fill="#009639"/>
<path d="M52.0996 50.7001V10.3C56.9996 15.6 59.9996 22.7 59.9996 30.5C59.9996 38.3 56.9996 45.4001 52.0996 50.7001Z" fill="#009639"/>
<path d="M11.0996 14.7002L28.3996 49.4002H11.0996V14.7002Z" fill="#009639"/>
<path d="M30 45.5001L13 11.6001H47L30 45.5001Z" fill="#009639"/>
<path d="M31.5996 49.4002L48.8996 14.7002V49.4002H31.5996Z" fill="#009639"/>
<path d="M13 11.6001H47L30 45.5001L13 11.6001Z" fill="#009639"/>
</g>
<defs>
<clipPath id="clip0_3945_2876">
<rect width="60" height="60" fill="#ffffff" transform="translate(0 0.5)"/>
</clipPath>
</defs>
</svg>