<svg width="66px" height="60px" viewBox="0 0 66 60" fill="none" xmlns="http://www.w3.org/2000/svg" transform="rotate(0) scale(1, 1)">
<path fill-rule="evenodd" clip-rule="evenodd" d="M63.6945 15.7639L58.0128 23.7083L52.331 15.7639H55.4289C55.1927 9.86111 50.3166 5.13889 44.357 5.13889C39.3282 5.13889 35.0633 8.51389 33.7158 13.1111C32.0766 12.5833 30.3818 12.25 28.6592 12.0972C28.8537 11.3611 29.1037 10.625 29.4093 9.91667C30.229 7.98611 31.3959 6.25 32.8823 4.76389C34.3687 3.27778 36.1052 2.09722 38.0362 1.29167C40.0366 0.430556 42.1621 0 44.357 0C46.5519 0 48.6774 0.430556 50.6778 1.27778C52.6088 2.09722 54.3453 3.26389 55.8317 4.75C57.3182 6.23611 58.4851 7.97222 59.3047 9.90278C60.0965 11.7639 60.5272 13.7361 60.5689 15.7639H63.6945Z" fill="#009639"/>
<path fill-rule="evenodd" clip-rule="evenodd" d="M55.7477 59.9999V56.5832H36.1602C36.2991 56.5138 36.438 56.4582 36.5769 56.3888C38.7024 55.3749 40.6611 54.0554 42.4115 52.4443C42.6477 52.2221 42.8699 52.0138 43.0783 51.8054C43.3145 51.5693 43.5645 51.3193 43.8007 51.0554C44.0785 50.7499 44.3564 50.4304 44.6064 50.111H55.7477V46.6943L65.0553 53.3471L55.7477 59.9999Z" fill="#009639"/>
<path fill-rule="evenodd" clip-rule="evenodd" d="M48.5241 35.3195C48.5241 38.2778 47.9406 41.1528 46.8015 43.8611C45.8291 46.1667 44.4677 48.2778 42.7728 50.125C42.5506 50.3611 42.3283 50.5973 42.106 50.8334C41.8977 51.0417 41.6893 51.2361 41.4809 51.4445C39.8416 52.9584 38.0079 54.1945 36.0075 55.1528C35.7296 55.2917 35.4379 55.4167 35.1462 55.5417C35.1323 55.5417 35.1323 55.5556 35.1184 55.5556C33.4514 56.2639 31.6593 56.6111 29.8395 56.6111H0.944336V50.1528H27.7696C35.8825 50.1528 42.5367 43.6667 42.6478 35.5556C42.6478 35.4861 42.6478 35.4167 42.6478 35.3473C42.6478 26.4861 35.4518 19.2917 26.5888 19.2917C17.7257 19.2639 10.5297 26.4445 10.5297 35.3195H14.2528L7.59856 44.625L0.944336 35.3195H4.66736C4.66736 32.3611 5.25082 29.4861 6.38996 26.7778C7.50131 24.1667 9.0711 21.8195 11.0854 19.8056C13.0997 17.7917 15.4475 16.2084 18.0592 15.1111C20.7681 13.9722 23.6437 13.3889 26.6027 13.3889C27.2 13.3889 27.7835 13.4167 28.3669 13.4584C30.0895 13.5972 31.7705 13.9306 33.4097 14.4722C33.9932 14.6667 34.5627 14.875 35.1323 15.125C37.744 16.2361 40.0917 17.8056 42.106 19.8195C44.1204 21.8334 45.704 24.1806 46.8015 26.7917C47.9406 29.4861 48.5241 32.3611 48.5241 35.3195Z" fill="#009639"/>
</svg>